<?xml version="1.0" standalone="no"?>
<!DOCTYPE svg PUBLIC "-//W3C//DTD SVG 20010904//EN"
 "http://www.w3.org/TR/2001/REC-SVG-20010904/DTD/svg10.dtd">
<svg version="1.0" xmlns="http://www.w3.org/2000/svg"
 width="280.000000pt" height="280.000000pt" viewBox="0 0 280.000000 280.000000"
 preserveAspectRatio="xMidYMid meet">

<g transform="translate(0.000000,280.000000) scale(0.100000,-0.100000)"
fill="#000000" stroke="none">
<path d="M1323 2623 c-26 -61 -32 -83 -23 -83 6 0 10 -8 10 -17 1 -14 4 -12
15 7 8 14 14 32 14 40 0 9 -6 5 -14 -10 -12 -20 -14 -21 -11 -5 2 11 7 31 13
44 8 21 11 22 16 7 4 -10 12 -14 19 -10 8 5 9 2 4 -12 -5 -14 -4 -16 5 -7 12
12 3 37 -11 28 -4 -3 -11 2 -14 11 -10 26 -7 27 19 10 14 -9 25 -13 25 -8 0 7
-42 32 -53 32 -1 0 -7 -12 -14 -27z"/>
<path d="M1432 2643 c2 -5 -8 -34 -21 -66 -19 -47 -21 -60 -11 -70 10 -9 11
-9 5 1 -4 8 -3 24 2 35 23 50 43 98 43 102 0 3 -4 5 -10 5 -5 0 -9 -3 -8 -7z"/>
<path d="M1465 2630 c3 -5 8 -10 11 -10 2 0 4 5 4 10 0 6 -5 10 -11 10 -5 0
-7 -4 -4 -10z"/>
<path d="M1513 2589 c1 -21 5 -35 8 -33 4 2 12 -10 19 -26 7 -17 14 -29 16
-27 2 2 -7 30 -20 63 -23 56 -24 57 -23 23z"/>
<path d="M1430 2564 c0 -8 5 -12 10 -9 6 4 8 11 5 16 -9 14 -15 11 -15 -7z"/>
<path d="M1343 2533 c-6 -16 -17 -45 -24 -65 -9 -26 -16 -34 -21 -25 -5 7 -6
-1 -2 -18 4 -23 3 -26 -5 -15 -9 13 -11 13 -11 -2 0 -38 18 -24 39 30 12 31
29 72 37 90 7 17 10 32 6 32 -4 0 -12 -12 -19 -27z"/>
<path d="M1494 2525 c4 -41 34 -121 42 -112 2 2 -5 26 -16 52 -12 27 -19 54
-16 60 2 7 0 18 -5 26 -6 9 -7 0 -5 -26z"/>
<path d="M1453 2543 c-7 -2 -13 -15 -13 -27 0 -12 -4 -26 -9 -31 -9 -10 -27
-74 -18 -65 5 5 57 131 54 129 -1 0 -8 -3 -14 -6z"/>
<path d="M1244 2420 c-28 -74 -38 -113 -32 -122 7 -10 8 -8 4 5 -3 9 -1 17 4
17 6 0 9 3 8 8 -3 13 14 66 27 88 14 22 39 104 33 109 -2 2 -22 -45 -44 -105z"/>
<path d="M1533 2477 c-3 -6 -1 -7 5 -3 7 4 12 3 12 -2 0 -5 11 -22 26 -38 l25
-29 -12 28 c-7 15 -16 27 -22 27 -5 0 -7 6 -4 13 6 16 -21 19 -30 4z"/>
<path d="M1371 2473 c-1 -6 -4 -20 -7 -30 -5 -17 -5 -17 6 0 6 10 9 23 6 30
-3 9 -5 9 -5 0z"/>
<path d="M1388 2414 c10 -19 4 -55 -11 -65 -6 -4 -5 -9 1 -13 16 -10 34 52 21
75 -5 10 -12 19 -15 19 -3 0 -1 -7 4 -16z"/>
<path d="M1332 2368 c-10 -30 -10 -31 3 -14 13 17 21 46 12 46 -1 0 -8 -15
-15 -32z"/>
<path d="M1606 2383 c4 -10 8 -28 8 -40 1 -11 4 -19 9 -16 4 2 7 -2 7 -10 0
-8 7 -28 16 -45 8 -18 13 -42 10 -54 -6 -23 -6 -23 5 -2 9 18 5 37 -21 103
-18 45 -35 81 -37 81 -3 0 -2 -8 3 -17z"/>
<path d="M1250 2375 c0 -5 5 -17 10 -25 5 -8 10 -10 10 -5 0 6 -5 17 -10 25
-5 8 -10 11 -10 5z"/>
<path d="M1459 2357 l-27 -12 18 -44 c14 -37 18 -41 22 -23 4 14 2 20 -5 15
-6 -4 -8 0 -4 10 3 9 2 19 -4 23 -6 3 -3 11 8 19 16 12 20 11 29 -8 7 -11 9
-28 6 -36 -3 -12 -2 -13 6 -6 9 8 9 19 0 43 -14 35 -13 35 -49 19z"/>
<path d="M1351 2344 c0 -11 3 -14 6 -6 3 7 2 16 -1 19 -3 4 -6 -2 -5 -13z"/>
<path d="M1557 2343 c12 -32 42 -88 43 -80 0 11 -39 97 -45 97 -2 0 -1 -8 2
-17z"/>
<path d="M1241 2339 c-2 -24 25 -44 32 -25 4 10 1 13 -8 10 -7 -3 -15 2 -18
13 -4 14 -5 15 -6 2z"/>
<path d="M1301 2289 c-8 -23 -8 -36 0 -45 6 -8 8 -26 5 -41 -5 -22 -4 -25 4
-13 9 12 11 9 7 -12 -5 -35 1 -36 13 -2 7 18 7 31 -1 40 -6 7 -8 18 -4 24 4 6
1 9 -6 8 -6 -2 -14 3 -17 11 -2 8 0 11 5 8 5 -3 10 7 10 23 0 38 -2 37 -16 -1z"/>
<path d="M1367 2313 c-4 -3 -7 -13 -7 -22 1 -13 3 -13 11 2 11 19 8 33 -4 20z"/>
<path d="M1181 2259 c-6 -18 -11 -37 -10 -43 0 -6 7 7 15 28 8 22 12 41 10 43
-2 2 -9 -10 -15 -28z"/>
<path d="M1237 2251 c-9 -21 -17 -44 -17 -52 0 -12 -2 -12 -9 0 -10 15 -31 7
-31 -13 0 -8 6 -19 14 -25 11 -9 19 1 40 55 29 71 31 99 3 35z m-27 -72 c0 -5
-4 -9 -10 -9 -5 0 -10 7 -10 16 0 8 5 12 10 9 6 -3 10 -10 10 -16z"/>
<path d="M1517 2283 c-4 -3 -7 -13 -7 -22 0 -13 2 -13 9 -3 11 19 24 -32 15
-60 -5 -18 -4 -19 8 -7 13 12 13 19 1 56 -16 46 -16 46 -26 36z"/>
<path d="M1211 2247 c-13 -21 -12 -21 5 -5 10 10 16 20 13 22 -3 3 -11 -5 -18
-17z"/>
<path d="M1476 2237 c3 -10 9 -15 12 -12 3 3 0 11 -7 18 -10 9 -11 8 -5 -6z"/>
<path d="M1606 2235 c14 -44 36 -105 39 -105 1 0 2 13 1 29 -1 16 -3 27 -5 25
-2 -2 -13 13 -23 33 -10 21 -16 29 -12 18z"/>
<path d="M1276 2201 c4 -16 3 -21 -5 -17 -6 4 -11 2 -11 -3 0 -6 7 -11 16 -11
14 0 14 -3 4 -15 -7 -9 -11 -17 -9 -20 3 -2 10 4 16 13 8 13 7 26 -3 47 -10
22 -12 24 -8 6z"/>
<path d="M1680 2205 c0 -5 5 -17 10 -25 5 -8 10 -10 10 -5 0 6 -5 17 -10 25
-5 8 -10 11 -10 5z"/>
<path d="M1151 2180 c2 -8 -7 -34 -19 -57 -21 -41 -19 -48 10 -44 12 1 1 -71
-13 -80 -11 -7 -11 -9 3 -9 19 0 27 21 24 65 -1 18 -7 29 -14 28 -18 -4 -15
18 9 56 15 25 17 36 9 45 -9 8 -11 7 -9 -4z"/>
<path d="M1561 2177 c-1 -11 -6 -15 -13 -11 -7 5 -8 3 -3 -5 10 -16 29 2 22
21 -4 8 -6 7 -6 -5z"/>
<path d="M1509 2151 c5 -9 11 -23 14 -31 3 -8 5 -1 4 16 0 17 -7 31 -13 31 -9
0 -10 -6 -5 -16z"/>
<path d="M1696 2134 c-4 -15 -5 -29 -1 -32 3 -3 5 2 5 12 0 9 4 15 9 12 5 -4
7 3 4 14 -7 26 -10 25 -17 -6z"/>
<path d="M1248 2138 c-4 -9 -4 -27 -1 -40 4 -18 3 -20 -6 -8 -7 9 -11 10 -11
3 0 -19 20 -26 26 -9 3 8 4 27 2 43 -2 21 -5 24 -10 11z"/>
<path d="M1570 2145 c0 -5 5 -17 10 -25 5 -8 10 -10 10 -5 0 6 -5 17 -10 25
-5 8 -10 11 -10 5z"/>
<path d="M1180 2130 c0 -5 5 -10 10 -10 6 0 10 5 10 10 0 6 -4 10 -10 10 -5 0
-10 -4 -10 -10z"/>
<path d="M1296 2131 c-4 -7 -5 -15 -2 -18 9 -9 19 4 14 18 -4 11 -6 11 -12 0z"/>
<path d="M1661 2122 c-1 -27 27 -98 35 -89 4 3 3 14 -1 24 -5 10 -7 21 -7 26
1 4 -2 7 -7 7 -5 0 -12 12 -14 28 -3 22 -4 23 -6 4z"/>
<path d="M1175 2100 c-3 -5 -1 -10 4 -10 6 0 11 5 11 10 0 6 -2 10 -4 10 -3 0
-8 -4 -11 -10z"/>
<path d="M1283 2082 c-6 -10 -14 -32 -18 -50 -3 -18 -11 -32 -16 -32 -6 0 -7
-5 -4 -10 4 -6 1 -17 -5 -25 -6 -8 -10 -22 -8 -31 2 -9 17 23 35 72 32 89 36
108 16 76z"/>
<path d="M1590 2080 c0 -5 5 -10 11 -10 5 0 7 5 4 10 -3 6 -8 10 -11 10 -2 0
-4 -4 -4 -10z"/>
<path d="M1097 2034 c-10 -19 -12 -32 -7 -29 12 7 33 55 27 61 -2 2 -11 -12
-20 -32z"/>
<path d="M1530 2059 c0 -5 5 -7 10 -4 6 3 10 8 10 11 0 2 -4 4 -10 4 -5 0 -10
-5 -10 -11z"/>
<path d="M1341 2030 c-5 -16 -6 -30 -1 -30 5 0 10 10 12 23 3 20 8 22 48 19
33 -2 41 0 30 7 -8 6 -29 11 -47 11 -26 0 -33 -5 -42 -30z"/>
<path d="M1490 2050 c0 -5 5 -10 10 -10 6 0 10 5 10 10 0 6 -4 10 -10 10 -5 0
-10 -4 -10 -10z"/>
<path d="M1740 2041 c0 -6 4 -13 10 -16 6 -3 7 1 4 9 -7 18 -14 21 -14 7z"/>
<path d="M1225 2019 c-4 -6 -4 -13 -1 -16 3 -4 6 -1 6 6 0 7 5 9 10 6 6 -3 10
-1 10 4 0 14 -17 14 -25 0z"/>
<path d="M1575 2010 c-3 -5 -1 -10 4 -10 6 0 11 5 11 10 0 6 -2 10 -4 10 -3 0
-8 -4 -11 -10z"/>
<path d="M1433 2003 c9 -2 25 -2 35 0 9 3 1 5 -18 5 -19 0 -27 -2 -17 -5z"/>
<path d="M1385 1990 c-4 -6 -10 -8 -14 -5 -5 2 -6 -7 -3 -20 2 -14 9 -25 14
-25 5 0 6 4 3 10 -3 5 -1 19 5 30 11 20 7 29 -5 10z"/>
<path d="M1186 1974 c-8 -22 -8 -52 2 -57 4 -3 7 13 7 34 1 43 0 46 -9 23z"/>
<path d="M1736 1964 c-4 -14 -5 -28 -3 -31 3 -2 8 8 11 23 4 14 5 28 3 31 -3
2 -8 -8 -11 -23z"/>
<path d="M1061 1949 c-16 -46 -14 -48 9 -11 22 37 24 42 11 42 -5 0 -14 -14
-20 -31z"/>
<path d="M1315 1960 c-4 -12 -2 -27 3 -32 8 -8 9 -4 6 13 -5 19 -4 21 5 9 13
-18 15 -1 2 19 -7 11 -10 9 -16 -9z"/>
<path d="M1783 1950 c1 -14 8 -31 15 -39 15 -15 11 -47 -5 -44 -6 1 -9 -7 -6
-20 4 -18 3 -19 -6 -7 -6 8 -11 11 -11 6 0 -14 53 -127 57 -122 2 2 -5 23 -17
46 -12 23 -19 47 -16 53 3 9 5 9 5 0 1 -7 6 -13 12 -13 8 0 7 5 -1 15 -10 12
-10 20 -1 38 10 19 9 30 -8 67 -14 33 -19 38 -18 20z"/>
<path d="M1485 1941 c11 -5 38 -5 60 -1 38 7 36 8 -20 8 -40 1 -53 -2 -40 -7z"/>
<path d="M1607 1930 c3 -11 7 -20 8 -20 1 0 5 9 8 20 3 12 0 20 -8 20 -8 0
-11 -8 -8 -20z"/>
<path d="M1400 1929 c0 -5 5 -7 10 -4 6 3 10 8 10 11 0 2 -4 4 -10 4 -5 0 -10
-5 -10 -11z"/>
<path d="M1077 1910 c-3 -11 -1 -20 4 -20 5 0 9 -8 9 -17 1 -17 1 -17 11 0 7
12 6 23 -4 37 l-14 21 -6 -21z"/>
<path d="M1661 1919 c-1 -8 6 -24 15 -35 15 -19 15 -19 6 1 -5 11 -12 27 -15
35 -5 13 -6 13 -6 -1z"/>
<path d="M1157 1901 c-4 -17 -3 -21 5 -13 5 5 8 16 6 23 -3 8 -7 3 -11 -10z"/>
<path d="M1216 1906 c5 -13 4 -17 -4 -12 -8 5 -10 2 -5 -10 6 -15 7 -15 16 1
6 11 5 21 -3 28 -8 9 -9 7 -4 -7z"/>
<path d="M1740 1915 c0 -5 5 -17 10 -25 5 -8 10 -10 10 -5 0 6 -5 17 -10 25
-5 8 -10 11 -10 5z"/>
<path d="M1036 1885 c-9 -26 -7 -32 5 -12 6 10 9 21 6 23 -2 3 -7 -2 -11 -11z"/>
<path d="M1320 1888 c0 -5 42 -7 93 -6 94 1 82 5 -31 10 -34 2 -62 0 -62 -4z"/>
<path d="M1569 1881 c51 -6 55 -8 68 -41 12 -32 13 -32 7 -5 -9 47 -21 55 -78
53 l-51 -1 54 -6z"/>
<path d="M1061 1854 c0 -11 3 -14 6 -6 3 7 2 16 -1 19 -3 4 -6 -2 -5 -13z"/>
<path d="M1146 1851 c4 -16 3 -21 -5 -17 -6 4 -11 3 -11 -3 0 -5 4 -12 9 -15
14 -9 22 24 11 42 -9 14 -10 12 -4 -7z"/>
<path d="M1820 1857 c0 -11 30 -67 35 -67 6 0 -16 52 -27 65 -4 5 -8 6 -8 2z"/>
<path d="M1009 1823 c-5 -14 -8 -30 -6 -36 1 -5 8 7 14 27 13 42 7 49 -8 9z"/>
<path d="M1040 1845 c0 -5 5 -17 10 -25 5 -8 10 -10 10 -5 0 6 -5 17 -10 25
-5 8 -10 11 -10 5z"/>
<path d="M1066 1805 c-10 -25 -21 -43 -26 -40 -4 3 -15 -10 -24 -28 -13 -27
-16 -29 -16 -9 0 30 -18 28 -26 -3 -5 -19 -16 -28 -47 -36 -179 -48 -312 -200
-354 -406 -45 -221 72 -460 275 -561 68 -33 84 -37 172 -40 74 -3 111 0 152
13 70 23 154 74 202 124 l40 40 -20 23 c-10 13 -21 25 -25 28 -37 34 -101 211
-101 284 -1 87 54 226 117 300 l25 30 -37 38 c-48 49 -117 94 -177 114 -51 18
-50 17 -35 45 10 20 9 20 -14 5 -13 -9 -27 -13 -31 -9 -3 4 -24 6 -46 5 -23
-2 -40 2 -40 8 0 5 4 10 9 10 10 0 55 99 48 106 -2 3 -12 -16 -21 -41z"/>
<path d="M1181 1820 c0 -29 1 -32 10 -17 7 11 7 23 0 35 -9 14 -10 11 -10 -18z"/>
<path d="M1690 1845 c1 -6 7 -21 16 -35 l15 -25 -7 25 c-7 26 -24 52 -24 35z"/>
<path d="M1113 1780 c-12 -41 -9 -47 12 -30 11 9 15 9 15 1 0 -7 5 -9 11 -5 6
3 7 9 2 13 -5 3 -14 17 -20 31 l-11 25 -9 -35z"/>
<path d="M1166 1777 c3 -10 9 -15 12 -12 3 3 0 11 -7 18 -10 9 -11 8 -5 -6z"/>
<path d="M1671 1750 c-1 -25 13 -40 29 -30 13 8 12 10 -2 10 -9 0 -19 8 -21
18 -3 12 -5 13 -6 2z"/>
<path d="M1866 1745 c-3 -9 -10 -13 -16 -10 -5 3 -10 1 -10 -4 0 -17 27 -13
34 5 4 9 5 19 2 21 -2 2 -6 -3 -10 -12z"/>
<path d="M1726 1735 c-3 -9 0 -15 9 -15 9 0 12 6 9 15 -4 8 -7 15 -9 15 -2 0
-5 -7 -9 -15z"/>
<path d="M1677 1694 c-76 -19 -151 -62 -201 -113 l-46 -47 43 -45 c59 -62 97
-175 97 -289 0 -113 -37 -223 -98 -291 l-45 -50 24 -26 c41 -45 155 -112 215
-128 309 -80 593 160 594 501 0 74 -25 175 -60 245 -52 100 -151 188 -262 231
-64 25 -192 31 -261 12z"/>
<path d="M1405 1489 c-4 -6 -4 -13 -1 -16 3 -4 6 -1 6 5 0 7 7 12 16 12 12 0
15 -7 12 -25 -6 -30 0 -33 10 -4 7 19 10 17 28 -18 18 -37 44 -70 44 -59 0 12
-52 91 -68 104 -19 15 -39 16 -47 1z"/>
<path d="M1373 1458 c-18 -22 -53 -96 -53 -112 0 -8 -6 -16 -12 -18 -10 -4
-10 -10 -2 -29 11 -23 12 -22 19 21 7 44 41 118 60 132 5 4 7 10 4 13 -4 3
-11 0 -16 -7z"/>
<path d="M1528 1330 c2 -17 9 -33 15 -37 6 -4 8 2 4 18 -4 13 -7 30 -7 37 0 6
-4 12 -8 12 -5 0 -7 -14 -4 -30z"/>
<path d="M1553 1200 c0 -25 2 -35 4 -22 2 12 2 32 0 45 -2 12 -4 2 -4 -23z"/>
<path d="M1532 1205 c0 -16 2 -22 5 -12 2 9 2 23 0 30 -3 6 -5 -1 -5 -18z"/>
<path d="M1282 1180 c0 -19 2 -27 5 -17 2 9 2 25 0 35 -3 9 -5 1 -5 -18z"/>
<path d="M1295 1100 c4 -14 17 -47 29 -75 21 -47 23 -48 22 -18 -1 17 -5 31
-9 30 -5 -1 -14 15 -22 36 -15 44 -31 65 -20 27z"/>
<path d="M1534 1093 c-3 -10 -10 -26 -15 -35 -5 -10 -9 -28 -9 -40 1 -23 1
-23 14 2 14 27 29 90 20 90 -2 0 -7 -8 -10 -17z"/>
<path d="M1476 975 c8 -20 -32 -65 -58 -65 -10 0 -18 5 -18 10 0 6 -5 10 -12
10 -6 0 -3 -9 7 -20 25 -28 40 -25 69 13 28 36 32 52 16 62 -6 3 -7 -1 -4 -10z"/>
<path d="M648 623 c-9 -2 -15 -10 -12 -17 6 -16 -22 -95 -43 -118 -15 -17 -14
-18 10 -18 19 0 25 4 21 15 -9 21 13 44 36 38 24 -6 35 -34 18 -45 -8 -4 12
-8 47 -8 l60 0 -3 49 c-3 39 -7 48 -18 44 -10 -4 -13 -14 -10 -32 3 -14 2 -33
-4 -41 -14 -22 -32 1 -60 78 -12 34 -23 61 -24 61 0 -1 -9 -3 -18 -6z m16 -68
c3 -9 0 -15 -9 -15 -8 0 -15 7 -15 15 0 8 4 15 9 15 5 0 11 -7 15 -15z"/>
<path d="M757 613 c-12 -11 -8 -23 8 -23 8 0 15 7 15 15 0 16 -12 20 -23 8z"/>
<path d="M866 596 c4 -19 1 -25 -21 -30 -33 -8 -51 -46 -36 -75 9 -17 21 -21
57 -21 38 0 45 3 40 16 -3 9 -6 42 -6 75 0 53 -2 59 -20 59 -16 0 -19 -5 -14
-24z m4 -82 c0 -23 -5 -34 -15 -34 -20 0 -30 46 -15 65 18 21 30 9 30 -31z"/>
<path d="M1078 613 c8 -3 12 -27 12 -68 0 -41 -4 -65 -12 -68 -7 -3 5 -5 27
-5 22 0 34 2 28 5 -7 2 -13 18 -13 34 0 27 3 29 35 29 30 0 35 -3 35 -23 0
-13 -5 -28 -12 -35 -9 -9 -3 -12 28 -11 21 0 33 3 27 6 -9 3 -13 27 -13 68 0
41 4 65 13 68 6 3 -6 6 -28 6 -26 0 -35 -2 -27 -8 8 -4 12 -19 10 -32 -5 -34
-61 -34 -66 0 -2 13 2 28 10 32 8 6 -1 8 -27 8 -22 0 -34 -3 -27 -6z"/>
<path d="M1790 606 c0 -9 7 -16 16 -16 9 0 14 5 12 12 -6 18 -28 21 -28 4z"/>
<path d="M2010 606 c0 -9 7 -16 16 -16 9 0 14 5 12 12 -6 18 -28 21 -28 4z"/>
<path d="M1854 579 c-6 -8 -10 -34 -9 -59 l1 -45 70 -3 70 -2 -4 40 c-2 21
-10 44 -18 50 -17 15 -54 3 -54 -16 0 -17 17 -19 23 -1 2 6 8 9 12 4 10 -9
-54 -68 -66 -61 -16 9 -10 56 9 70 15 12 15 13 0 14 -9 0 -18 5 -20 11 -2 7
-7 7 -14 -2z m96 -85 c0 -8 -5 -12 -10 -9 -6 4 -8 11 -5 16 9 14 15 11 15 -7z"/>
<path d="M936 554 c-34 -34 -10 -89 35 -82 29 4 36 25 8 24 -35 -1 -34 22 2
31 30 8 31 10 15 26 -22 21 -40 22 -60 1z m41 -10 c-3 -3 -12 -4 -19 -1 -8 3
-5 6 6 6 11 1 17 -2 13 -5z"/>
<path d="M1256 533 c9 -61 10 -63 58 -63 l45 0 -5 38 c-8 54 -13 64 -26 60 -8
-3 -11 -20 -9 -46 2 -33 -1 -42 -13 -42 -12 0 -16 11 -16 45 0 38 -3 45 -19
45 -17 0 -19 -5 -15 -37z"/>
<path d="M1391 562 c-5 -2 -7 -19 -4 -39 4 -24 2 -38 -8 -44 -10 -6 -7 -9 12
-9 24 0 26 3 25 37 -1 29 3 38 18 41 16 3 18 -1 14 -37 -3 -36 -1 -41 17 -41
18 0 20 5 17 40 -3 33 -1 40 13 40 14 0 16 -7 13 -40 -3 -35 -1 -40 17 -40 18
0 20 5 17 40 -2 22 -9 43 -16 48 -11 7 -116 10 -135 4z"/>
<path d="M1571 557 c-14 -18 -2 -30 16 -15 7 6 17 8 21 4 4 -4 -5 -17 -21 -28
-40 -29 -35 -48 12 -48 l40 0 -4 40 c-2 22 -6 44 -10 50 -9 14 -41 12 -54 -3z
m39 -56 c0 -6 -4 -13 -10 -16 -5 -3 -10 1 -10 9 0 9 5 16 10 16 6 0 10 -4 10
-9z"/>
<path d="M1672 560 c-4 -3 -7 -24 -7 -47 0 -37 3 -43 20 -43 18 0 20 5 17 40
-3 33 -1 40 13 40 14 0 16 -7 13 -40 -3 -35 -1 -40 17 -40 18 0 20 5 17 38 -2
20 -9 42 -14 49 -9 11 -62 14 -76 3z"/>
<path d="M1795 562 c-6 -4 -10 -26 -10 -49 0 -37 3 -43 20 -43 18 0 20 5 17
43 -4 46 -12 60 -27 49z"/>
<path d="M2015 562 c-5 -4 -10 -26 -10 -49 l0 -43 50 0 51 0 -4 35 c-3 28 -1
35 13 35 9 0 15 6 13 12 -4 11 -21 13 -57 9 -5 0 -7 -19 -4 -41 5 -33 3 -40
-11 -40 -12 0 -16 10 -16 45 0 44 -5 52 -25 37z"/>
<path d="M2156 557 c-12 -9 -17 -23 -14 -47 3 -32 6 -35 37 -35 19 0 36 5 38
12 3 7 -3 10 -15 7 -10 -3 -24 2 -31 10 -8 9 -11 17 -7 17 3 1 11 3 16 4 6 1
17 3 25 4 20 1 19 27 -1 35 -22 9 -28 8 -48 -7z"/>
<path d="M1434 400 c-5 -5 -7 -31 -4 -57 4 -40 9 -49 28 -51 12 -2 22 2 22 8
0 6 -4 8 -10 5 -6 -4 -10 8 -10 29 0 19 5 38 10 41 6 4 5 12 -4 21 -17 17 -19
17 -32 4z"/>
<path d="M1341 376 c-7 -8 -11 -30 -9 -48 3 -30 6 -33 37 -33 19 0 36 5 38 12
3 7 -3 10 -15 7 -10 -3 -24 2 -31 10 -8 9 -12 16 -10 17 2 0 15 3 28 5 33 6
36 11 21 29 -16 19 -44 19 -59 1z m34 -6 c3 -5 1 -10 -4 -10 -6 0 -11 5 -11
10 0 6 2 10 4 10 3 0 8 -4 11 -10z"/>
<path d="M699 231 c10 -6 12 -27 9 -81 l-4 -72 53 4 c37 3 60 12 77 27 23 22
23 22 29 2 7 -28 33 -36 65 -21 l27 13 -29 6 c-41 8 -46 31 -7 31 33 0 39 8
19 28 -17 17 -58 15 -65 -4 -4 -11 -11 -4 -23 24 -10 21 -25 42 -35 45 -26 11
-132 8 -116 -2z m99 -17 c44 -30 21 -119 -29 -112 -21 3 -24 9 -27 52 -5 77 9
93 56 60z m112 -54 c0 -5 -4 -10 -10 -10 -5 0 -10 5 -10 10 0 6 5 10 10 10 6
0 10 -4 10 -10z"/>
<path d="M1180 238 c-1 -2 -2 -37 -3 -79 -2 -74 -1 -77 21 -77 16 0 21 5 18
15 -3 8 -6 44 -6 79 0 50 -3 64 -15 64 -8 0 -15 -1 -15 -2z"/>
<path d="M885 219 c-12 -19 5 -23 22 -6 16 16 16 17 1 17 -9 0 -20 -5 -23 -11z"/>
<path d="M2085 197 c-16 -18 -6 -107 12 -114 8 -3 19 -1 26 6 8 8 8 11 -1 11
-16 0 -16 67 1 73 10 4 10 6 0 6 -7 1 -13 8 -13 16 0 18 -11 19 -25 2z"/>
<path d="M977 130 c13 -27 26 -50 28 -50 4 0 45 88 45 96 0 2 -7 4 -15 4 -9 0
-15 -6 -14 -12 3 -26 -1 -39 -11 -33 -5 3 -10 15 -10 26 0 13 -7 19 -24 19
l-23 0 24 -50z"/>
<path d="M1080 159 c-26 -48 26 -101 67 -68 14 13 13 15 -12 19 -41 7 -44 30
-5 30 25 0 31 3 26 16 -3 9 -6 18 -6 20 0 2 -13 4 -30 4 -20 0 -33 -7 -40 -21z
m50 1 c0 -5 -7 -10 -15 -10 -8 0 -15 5 -15 10 0 6 7 10 15 10 8 0 15 -4 15
-10z"/>
<path d="M1242 168 c-34 -34 2 -98 48 -83 24 7 37 51 23 74 -13 20 -54 26 -71
9z m46 -35 c-2 -21 -7 -38 -13 -38 -5 0 -11 17 -13 38 -3 29 0 37 13 37 13 0
16 -8 13 -37z"/>
<path d="M1335 163 c4 -10 8 -44 8 -75 0 -55 1 -58 26 -58 19 0 22 3 13 12
-20 20 -14 33 21 43 25 8 33 16 35 38 5 41 -14 57 -65 57 -39 0 -44 -2 -38
-17z m73 -28 c3 -27 -14 -49 -30 -39 -10 6 -11 58 -1 68 13 13 28 -1 31 -29z"/>
<path d="M1455 105 c0 -71 1 -75 23 -75 19 0 21 4 16 24 -5 20 -1 24 25 29 22
5 32 14 37 33 10 40 -7 59 -57 62 l-44 3 0 -76z m73 30 c3 -27 -14 -49 -30
-39 -10 6 -11 58 -1 68 13 13 28 -1 31 -29z"/>
<path d="M1581 166 c-17 -20 -10 -67 11 -79 12 -8 24 -7 45 3 l28 13 -29 6
c-41 8 -46 31 -7 31 33 0 39 8 19 28 -16 16 -53 15 -67 -2z m39 -6 c0 -5 -4
-10 -10 -10 -5 0 -10 5 -10 10 0 6 5 10 10 10 6 0 10 -4 10 -10z"/>
<path d="M1675 131 c0 -41 3 -49 18 -48 14 1 17 7 12 25 -8 32 3 62 22 62 13
0 15 -9 11 -45 -5 -38 -3 -45 11 -43 10 2 18 16 21 42 3 22 11 42 19 44 11 4
13 -5 9 -40 -5 -42 -4 -45 18 -45 20 -1 22 3 17 36 -8 62 -7 61 -85 61 l-73 0
0 -49z"/>
<path d="M1862 168 c-17 -17 -15 -54 4 -72 19 -19 28 -20 57 -4 22 12 21 12
-7 18 -41 7 -46 30 -7 30 17 0 31 4 31 8 0 15 -24 32 -45 32 -12 0 -26 -5 -33
-12z m48 -8 c0 -5 -7 -10 -15 -10 -8 0 -15 5 -15 10 0 6 7 10 15 10 8 0 15 -4
15 -10z"/>
<path d="M1955 130 c0 -41 3 -50 18 -50 14 0 17 9 17 45 0 35 4 45 16 45 14 0
16 -8 12 -45 -5 -42 -4 -45 18 -45 21 0 22 3 18 38 -9 60 -11 62 -56 62 l-43
0 0 -50z"/>
</g>
</svg>
